<svg width="37" height="36" viewBox="0 0 37 36" fill="none" xmlns="http://www.w3.org/2000/svg">
<circle opacity="0.74" cx="18.5" cy="18" r="18" fill="#356C07"/>
<path d="M20.1 20.0545C19.7686 20.0545 19.5 20.3308 19.5 20.6718V22.318C19.5 22.659 19.7686 22.9354 20.1 22.9354C20.4314 22.9354 20.7 22.659 20.7 22.318V20.6718C20.7 20.3308 20.4314 20.0545 20.1 20.0545Z" fill="white"/>
<path d="M16.3 20.6718C16.3 20.3308 16.5686 20.0545 16.9 20.0545C17.2314 20.0545 17.5 20.3308 17.5 20.6718V22.318C17.5 22.659 17.2314 22.9354 16.9 22.9354C16.5686 22.9354 16.3 22.659 16.3 22.318V20.6718Z" fill="white"/>
<path fill-rule="evenodd" clip-rule="evenodd" d="M20.3804 11.9261C20.2147 11.6308 20.313 11.2533 20.6 11.0828C20.887 10.9123 21.2539 11.0135 21.4196 11.3088L23.0196 14.1602C23.0436 14.2029 23.062 14.2473 23.0752 14.2926H23.3C24.515 14.2926 25.5 15.306 25.5 16.5562C25.5 17.2633 25.1848 17.8948 24.6911 18.3099L24.1576 22.0836L23.8002 23.8066C23.586 24.8388 22.767 25.6229 21.7509 25.7684C19.594 26.0772 17.406 26.0772 15.2491 25.7684C14.233 25.6229 13.414 24.8388 13.1998 23.8066L12.8424 22.0836L12.3089 18.3099C11.8152 17.8948 11.5 17.2633 11.5 16.5562C11.5 15.306 12.485 14.2926 13.7 14.2926H13.9248C13.938 14.2473 13.9564 14.2029 13.9804 14.1602L15.5804 11.3088C15.7461 11.0135 16.113 10.9123 16.4 11.0828C16.687 11.2533 16.7853 11.6308 16.6196 11.9261L15.2917 14.2926H21.7083L20.3804 11.9261ZM13.5932 18.8171C13.6286 18.8189 13.6642 18.8198 13.7 18.8198H23.3C23.3358 18.8198 23.3714 18.8189 23.4068 18.8171L22.9758 21.8657L22.6266 23.5488C22.5178 24.0733 22.1017 24.4716 21.5855 24.5455C19.5384 24.8386 17.4616 24.8386 15.4145 24.5455C14.8983 24.4716 14.4822 24.0733 14.3734 23.5488L14.0242 21.8657L13.5932 18.8171ZM24.3 16.5562C24.3 15.9879 23.8523 15.5273 23.3 15.5273H13.7C13.1477 15.5273 12.7 15.9879 12.7 16.5562C12.7 17.1244 13.1477 17.5851 13.7 17.5851H23.3C23.8523 17.5851 24.3 17.1244 24.3 16.5562Z" fill="white"/>
</svg>
